name analog
datacolumns 19
datarows 33
range 0.1575 0.17350000000000002
endheader
time	ground_force_vx	ground_force_vy	ground_force_vz	ground_force_px	ground_force_py	ground_force_pz	l_ground_force_vx	l_ground_force_vy	l_ground_force_vz	l_ground_force_px	l_ground_force_py	l_ground_force_pz	ground_torque_x	ground_torque_y	ground_torque_z	l_ground_torque_x	l_ground_torque_y	l_ground_torque_z
0.1575	-0.0	-0.0	-0.0	-5.81683874130249	96.51009368896484	-622.8594360351562	-5.673101425170898	-92.47280883789062	-581.33740234375	-0.0	-0.0	-0.0	-0.0	-0.0	-0.0	80497.1875	29839.771484375	-17701.650390625
0.158	-0.0	-0.0	-0.0	-5.869664669036865	96.4917984008789	-622.65625	-5.715388774871826	-91.95573425292967	-582.5182495117188	-0.0	-0.0	-0.0	-0.0	-0.0	-0.0	80547.953125	29884.751953125	-17635.1875
0.1585	-0.0	-0.0	-0.0	-5.265655517578125	96.973876953125	-624.6304931640625	-5.432079315185547	-92.0274887084961	-581.5528564453125	-0.0	-0.0	-0.0	-0.0	-0.0	-0.0	80457.109375	29861.7734375	-17707.005859375
0.159	-0.0	-0.0	-0.0	-4.481410980224609	97.24127197265624	-624.5048217773438	-4.824496746063232	-91.7152862548828	-583.512939453125	-0.0	-0.0	-0.0	-0.0	-0.0	-0.0	80403.2421875	30339.0703125	-17806.896484375
0.1595	-0.0	-0.0	-0.0	-4.402353763580322	96.93706512451172	-629.4396362304688	-4.919473171234131	-91.3587417602539	-584.9638061523438	-0.0	-0.0	-0.0	-0.0	-0.0	-0.0	80914.90625	30336.333984375	-17854.7890625
0.16	-0.0	-0.0	-0.0	-3.445478677749634	96.90322875976562	-630.4736328125	-4.046296119689941	-90.96863555908205	-583.4894409179688	-0.0	-0.0	-0.0	-0.0	-0.0	-0.0	80798.34375	30650.677734375	-17853.1640625
0.1605	-0.0	-0.0	-0.0	-2.817603349685669	96.42415618896484	-629.3953247070312	-3.1763150691986084	-90.89788055419922	-586.5839233398438	-0.0	-0.0	-0.0	-0.0	-0.0	-0.0	80820.453125	30769.119140625	-17805.66015625
0.161	-0.0	-0.0	-0.0	-1.9518485069274905	96.49492645263672	-632.339599609375	-2.9815011024475098	-90.7236328125	-584.9573974609375	-0.0	-0.0	-0.0	-0.0	-0.0	-0.0	80878.890625	30966.779296875	-17864.84375
0.1615	-0.0	-0.0	-0.0	-2.4086837768554688	96.18611145019533	-633.137451171875	-2.236870765686035	-90.45873260498048	-585.9449462890625	-0.0	-0.0	-0.0	-0.0	-0.0	-0.0	80916.4296875	31087.998046875	-17763.6640625
0.162	-0.0	-0.0	-0.0	-2.1035122871398926	96.13883972167967	-633.2699584960938	-1.737931251525879	-90.60198211669922	-586.57470703125	-0.0	-0.0	-0.0	-0.0	-0.0	-0.0	80541.59375	31303.708984375	-17894.134765625
0.1625	-0.0	-0.0	-0.0	-2.375963926315308	95.65573120117188	-634.440673828125	-0.9221786856651306	-89.8940200805664	-585.316162109375	-0.0	-0.0	-0.0	-0.0	-0.0	-0.0	80764.8125	31534.357421875	-17851.576171875
0.163	-0.0	-0.0	-0.0	-2.24387264251709	95.90431213378906	-634.963623046875	-0.0893965661525726	-89.43412780761719	-586.228271484375	-0.0	-0.0	-0.0	-0.0	-0.0	-0.0	80740.7421875	31335.81640625	-17578.00390625
0.1635	-0.0	-0.0	-0.0	-2.1600258350372314	95.53649139404295	-636.0018920898438	1.082527995109558	-88.32168579101562	-585.1097412109375	-0.0	-0.0	-0.0	-0.0	-0.0	-0.0	80348.296875	31609.888671875	-17464.013671875
0.164	-0.0	-0.0	-0.0	-1.809203147888184	95.17225646972656	-637.7158203125	1.5790561437606812	-87.89774322509766	-583.432373046875	-0.0	-0.0	-0.0	-0.0	-0.0	-0.0	80204.7890625	31671.771484375	-17404.337890625
0.1645	-0.0	-0.0	-0.0	-1.61857008934021	95.36953735351562	-636.5308837890625	2.6787900924682617	-87.0323257446289	-584.1293334960938	-0.0	-0.0	-0.0	-0.0	-0.0	-0.0	80408.2421875	31814.390625	-17195.796875
0.165	-0.0	-0.0	-0.0	-1.6249568462371826	94.67635345458984	-637.4635620117188	3.743079423904419	-85.77815246582031	-583.362060546875	-0.0	-0.0	-0.0	-0.0	-0.0	-0.0	80338.3046875	32082.02734375	-17218.29296875
0.1655	-0.0	-0.0	-0.0	-1.815704584121704	95.42021942138672	-638.0438232421875	4.595019340515137	-85.00119018554688	-582.7379760742188	-0.0	-0.0	-0.0	-0.0	-0.0	-0.0	80400.171875	32070.671875	-16962.490234375
0.166	-0.0	-0.0	-0.0	-1.318845510482788	95.4007797241211	-636.7361450195312	5.429372310638428	-84.43553161621094	-582.5975952148438	-0.0	-0.0	-0.0	-0.0	-0.0	-0.0	80183.984375	32035.720703125	-17003.03125
0.1665	-0.0	-0.0	-0.0	-1.9626312255859373	95.24933624267578	-636.5836791992188	5.80068826675415	-83.39366912841797	-582.3137817382812	-0.0	-0.0	-0.0	-0.0	-0.0	-0.0	79942.7109375	32300.720703125	-16901.38671875
0.167	-0.0	-0.0	-0.0	-1.9123053550720213	95.5283660888672	-634.465087890625	6.01418924331665	-82.89793395996094	-582.3055419921875	-0.0	-0.0	-0.0	-0.0	-0.0	-0.0	79968.0234375	32555.83984375	-16972.474609375
0.1675	-0.0	-0.0	-0.0	-2.3585047721862797	95.47816467285156	-633.527587890625	6.457670211791992	-82.15731048583984	-580.773193359375	-0.0	-0.0	-0.0	-0.0	-0.0	-0.0	80044.6171875	32870.69140625	-16966.626953125
0.168	-0.0	-0.0	-0.0	-2.5762009620666504	95.33907318115234	-631.4513549804688	6.141999244689941	-81.69490051269531	-581.2550048828125	-0.0	-0.0	-0.0	-0.0	-0.0	-0.0	80031.0859375	32878.96875	-16966.7734375
0.1685	-0.0	-0.0	-0.0	-2.4283339977264404	95.01301574707033	-628.6602783203125	6.497280597686768	-81.07931518554688	-580.0011596679688	-0.0	-0.0	-0.0	-0.0	-0.0	-0.0	79511.15625	33083.0390625	-17013.46875
0.169	-0.0	-0.0	-0.0	-2.925259113311768	94.83474731445312	-626.30712890625	5.806366443634033	-80.70769500732422	-578.2675170898438	-0.0	-0.0	-0.0	-0.0	-0.0	-0.0	79225.5703125	33381.359375	-17169.458984375
0.1695	-0.0	-0.0	-0.0	-3.1522350311279297	94.54759216308594	-625.0101928710938	5.42983865737915	-80.25128936767578	-576.3184204101562	-0.0	-0.0	-0.0	-0.0	-0.0	-0.0	78943.4453125	33616.92578125	-17215.486328125
0.17	-0.0	-0.0	-0.0	-3.3108513355255127	93.97306823730467	-621.5579223632812	4.949250221252441	-80.11181640625	-575.7509765625	-0.0	-0.0	-0.0	-0.0	-0.0	-0.0	78462.2578125	34000.1171875	-17204.716796875
0.1705	-0.0	-0.0	-0.0	-3.687096118927002	93.21051025390624	-619.048828125	4.155151844024658	-80.20043182373047	-573.2337036132812	-0.0	-0.0	-0.0	-0.0	-0.0	-0.0	78236.4140625	34173.42578125	-17400.544921875
0.171	-0.0	-0.0	-0.0	-3.371379852294922	92.53732299804688	-616.884033203125	3.870584726333618	-79.87998962402344	-569.66845703125	-0.0	-0.0	-0.0	-0.0	-0.0	-0.0	77472.3046875	34634.41015625	-17383.48828125
0.1715	-0.0	-0.0	-0.0	-4.311169147491455	91.75524139404295	-613.2791137695312	3.3522632122039795	-79.82414245605469	-567.3516235351562	-0.0	-0.0	-0.0	-0.0	-0.0	-0.0	77106.2265625	35091.87890625	-17454.078125
0.17200000000000001	-0.0	-0.0	-0.0	-4.906578063964844	91.45916748046876	-611.0809936523438	2.6801400184631348	-79.8240737915039	-564.7792358398438	-0.0	-0.0	-0.0	-0.0	-0.0	-0.0	76006.109375	35365.984375	-17530.94140625
0.17250000000000001	-0.0	-0.0	-0.0	-5.056365966796875	90.9617919921875	-608.5624389648438	1.640310764312744	-79.21145629882812	-561.435791015625	-0.0	-0.0	-0.0	-0.0	-0.0	-0.0	75747.796875	35776.53515625	-17650.107421875
0.17300000000000001	-0.0	-0.0	-0.0	-5.99735689163208	90.52806854248048	-605.543212890625	0.7794473767280579	-79.35061645507812	-558.9171142578125	-0.0	-0.0	-0.0	-0.0	-0.0	-0.0	75329.3984375	35952.51953125	-17835.013671875
0.17350000000000002	-0.0	-0.0	-0.0	-6.581254959106445	89.8840560913086	-601.7068481445312	-0.0696914717555046	-78.98487854003906	-557.520263671875	-0.0	-0.0	-0.0	-0.0	-0.0	-0.0	74506.4609375	36146.36328125	-18000.74609375
